<svg xmlns:rdf="http://www.w3.org/1999/02/22-rdf-syntax-ns#" xmlns="http://www.w3.org/2000/svg" version="1.1" xmlns:cc="http://creativecommons.org/ns#" xmlns:dc="http://purl.org/dc/elements/1.1/" viewBox="0 0 1600 240">
<g transform="translate(0 -812)">
<path d="m129 815-121 69c-5.26 3.04-8.49 8.59-8.49 14.6v3.62 132c.486 0 8.2 10 17.7 10h77.7c9.52-.01 17.2-7.59 17.2-16.9v-30.1c12.6-6.33 21.4-19.1 21.4-33.8 0-20.8-17.6-38.1-38.8-38.1-21.2.000010-38.8 17.3-38.8 38.1 0 14.8 8.93 27.6 21.6 33.9v13.1h-43.2v-109l103-59.7 103 59.7v110l-43-.601v-13.4c12.6-6.33 21.4-19.1 21.4-33.8 0-20.8-17.6-38.1-38.8-38.1s-38.8 17.3-38.8 38.1c0 14.8 8.93 27.6 21.6 33.9v30c-.005 9.26 7.57 16.8 17 16.9l77.4 1.05c9.61.138 17.5-7.48 17.5-16.9v-136c.00099-6-3.23-11.5-8.49-14.6l-119-64c-2.49-1.43-5.31-2.23-8.2-2.31-3.25-.103-6.47.699-9.27 2.31z" style="color-rendering:auto;color:#000000;isolation:auto;mix-blend-mode:normal;text-decoration-color:#000000;shape-rendering:auto;solid-color:#000000;block-progression:tb;text-decoration-line:none;text-decoration-style:solid;image-rendering:auto;white-space:normal;text-indent:0;text-transform:none;fill:#fc0"/>
<text style="font-size:250px;letter-spacing:0px;line-height:125%;word-spacing:0px;font-family:&apos;Alegreya Sans SC&apos;;fill:#ffcc00" xml:space="preserve" y="1011.6122" x="313.69141"><tspan x="313.69141" style="font-size:250px;line-height:125%;font-family:&apos;Alegreya Sans SC&apos;;fill:#ffcc00" y="1011.6122">Theatersoft</tspan></text>
</g>
</svg>
