<svg xmlns:rdf="http://www.w3.org/1999/02/22-rdf-syntax-ns#" xmlns="http://www.w3.org/2000/svg" height="100%" width="100%" version="1.1" xmlns:cc="http://creativecommons.org/ns#" xmlns:dc="http://purl.org/dc/elements/1.1/" viewBox="0 0 1600 240">
<style type="text/css">
@font-face {
  font-family: 'Alegreya Sans SC';
  font-style: normal;
  font-weight: 400;
  src: local('Alegreya Sans SC Regular'), local('AlegreyaSansSC-Regular'), url(https://fonts.gstatic.com/s/alegreyasanssc/v5/6kgb6ZvOagoVIRZyl8XV-GL2AW3E1oWj8j6lNowK7s4.woff2) format('woff2');
}
</style>
<text font-size="250" font-family="Alegreya Sans SC" fill="#ffcc00" y="199.61218" x="294.5">
Theatersoft</text>
<path d="m127.6 21.94-100.5 58.06c-4.385 2.536-7.077 7.161-7.076 12.16v3.018 109.8c-.0029 7.791 6.424 14.11 14.36 14.11h64.73c7.932-.008 14.36-6.322 14.36-14.11v-25.11c10.5-5.275 17.85-15.91 17.85-28.16 0-17.37-14.63-31.75-32.31-31.75-17.68.00001-32.31 14.38-32.31 31.75 0 12.33 7.44 23.02 18.04 28.26v10.91h-35.99v-90.67l86.17-49.78 86.16 49.78v91.36l-35.8-.5008v-11.2c10.5-5.275 17.85-15.91 17.85-28.16 0-17.37-14.63-31.75-32.31-31.75s-32.31 14.38-32.31 31.75c0 12.33 7.44 23.02 18.04 28.26v25.01c-.005 7.718 6.307 14.01 14.16 14.11l64.51.8766c8.012.1153 14.57-6.231 14.57-14.1v-113.7c.00083-4.998-2.691-9.624-7.076-12.16l-100.6-58.1c-2.077-1.195-4.427-1.858-6.834-1.929-2.709-.0862-5.388.5824-7.726 1.929z" style="color-rendering:auto;color:#000000;isolation:auto;mix-blend-mode:normal;text-decoration-color:#000000;shape-rendering:auto;solid-color:#000000;block-progression:tb;text-decoration-line:none;text-decoration-style:solid;image-rendering:auto;white-space:normal;text-indent:0;text-transform:none;fill:#fc0"/>
</svg>
